<?xml version="1.0" encoding="utf-8"?>
<!-- Generator: Adobe Illustrator 27.2.0, SVG Export Plug-In . SVG Version: 6.00 Build 0)  -->
<svg version="1.1" id="Capa_1" xmlns="http://www.w3.org/2000/svg" xmlns:xlink="http://www.w3.org/1999/xlink" x="0px" y="0px"
	 viewBox="0 0 1480.2 750" style="enable-background:new 0 0 1480.2 750;" xml:space="preserve">
<style type="text/css">
	.st0{opacity:0.8;fill:#BCBEC0;}
	.st1{opacity:0.7;fill:#004B7F;}
	.st2{opacity:0.6;fill:#007B6C;}
</style>
<g>
	<path class="st0" d="M2.5,445.4c19.6,9.8,8.7,5.1,27.9,15.7c16,8.8,32.7,15.7,50.6,19.9c17.2,4,34.4,4.5,51.3,1.8
		c17-2.7,33.7-7.9,50.3-12.8c13.2-4,25.9-9.8,39.1-13.9c19.9-6.3,40.1-11.9,60.2-17.6c5.7-1.6,11.5-2.6,18-4.1
		c-0.6-4.2-1.2-8.1-1.8-12.1c10.8-3.1,10.9-3,12.8,8.7c3-0.4,6.1-0.7,8-1c5-3.9-5.5-13,6.4-13.2c7.5-0.1,4.3,6.2,6.8,9.8
		c2-0.5,4.4-1,7-1.7c-0.1-1.4,0-2.6-0.2-3.6c-2.7-13.3-1.3-15,12.1-16.8c5.2-0.7,10.3-2,16.1-3.2c-7.2-41.5,13.4-61.3,52.5-65.7
		c-3-15.6,4.6-27.1,22.6-29.6c21.7-3,43.2-7.7,64.8-11.6c5-0.9,10-1.7,15-1.9c4.4-0.2,5.8-1.9,6.3-6.2c1.3-11.4,6-21,16.3-27.1
		c17.1-10.2,40.5-3.3,47.5,15.2c4.2,11.2,6,23.4,8.3,35.3c2.8,14.4,4.9,29,7.3,43.5c3.2,19.7,6.3,39.4,9.7,59.1
		c3.6,21.3,7.4,42.5,11.1,63.8c1.7,9.7,3.8,19.4,5.1,29.2c3.5,27.4-18.5,47.7-43.6,40.2c-11.9-3.6-18.8-12.8-23.6-24.6
		c-13,2.5-26,5.1-39,7.4c-13.1,2.3-26.2,4.2-39.4,6.3c-3.4,0.6-6.6,1.7-10,2.3c-13.4,2.3-22.8-4.6-27.3-20.7c-6,0.6-12.1,1.3-18.2,2
		c-28.7,3.4-50.4-18.8-52-43.6c0-0.4-0.3-0.8-0.9-2.1c-5.2,0.9-10.7,1.9-16.2,2.7c-13.9,2-14.2,1.8-17.6-11.9
		c-0.2-0.9-0.5-1.8-0.8-3c-2.2,0-4.3,0-7.2,0c0.6,4,1.1,7.5,1.6,11.5c-3.1,1-6,1.9-9.3,3c-1.2-4.1-2.3-7.7-3.6-12
		c-3.2,0.6-6.2,1.1-9.6,1.7c0.6,4,1.2,7.6,1.8,11.4c-3.3,0.7-6.2,1.3-9.7,2c-1.1-3-2.2-6.1-3.8-10.2c-8.2,1.7-17,3-25.5,5.4
		c-15.5,4.5-30.9,9.5-46.2,14.5c-19.4,6.4-38.5,13.9-58.1,19.6c-25.1,7.3-50.7,12.1-77.3,10.1c-36-2.7-67.5-17.2-98.3-34.8
		L2.5,445.4z"/>
	<path class="st0" d="M1480.2,283.4c-26.3-13.1-51.5-28.5-77.8-41.8c-15.9-8-33.3-12-51.1-14.1c-19.8-2.3-39.5-1.2-58.9,3
		c-8.9,1.9-17.9,3.7-26.6,6.5c-19,6.1-37.7,13.1-56.7,19.4c-15.7,5.2-31.6,10.3-47.5,14.8c-8.4,2.4-17.2,3.6-25.7,5.4
		c-0.8-2-1.3-3.1-1.7-4.2c-0.4-1-0.9-2-1.2-2.9c-8.6,0.1-10.2,1.3-9.4,6.5c1.3,8.3,1.3,8.3-8.5,7.9c-1-3.3-2-6.8-2.9-10.2
		c-10-0.6-10.2-0.4-8.7,8.3c1,5.6-2.4,5.8-6.4,5.8c-0.8-2.8-1.6-5.2-2.2-7.6c-2.3-8.5-3.4-9.3-12.4-8.5c-5,0.5-10.6,0.1-14.9,2.2
		c-10.3,5.1-13.9-1.2-19.2-8.2c-24.3-31.7-56.2-47.4-96.6-42.4c-16.8,2-33.4,5.5-50.1,8.3c-5.2,0.9-9,1.1-11.1-6.1
		c-3.4-11.5-12.3-19.6-23.9-22.2c-26.5-5.8-43.7,16.2-41.5,37.2c1.9,18,5.9,35.8,9,53.6c2.3,13.3,4.8,26.7,7,40
		c3.3,19.5,6.4,38.9,9.6,58.4c2.4,14.5,4.6,29,7.3,43.5c2.4,13,4.4,26.3,8.3,38.9c4.4,14.2,26.3,25.2,41.1,19
		c12-5,22.6-17.6,23.1-32.5c0.1-3.1-0.1-6,4.2-6.6c5.2-0.7,10.3-1.9,15.5-2.8c15.5-2.8,31.2-4.8,46.5-8.5
		c24.1-5.8,42.1-20.6,55.9-40.7c11.5-16.7,17.4-35.5,19.4-56.4c7.8-1.3,15.4-2.7,23.1-3.9c7.5-1.2,10.3-4.9,8.9-12.4
		c-0.5-2.4-0.9-4.8-1.5-7.9c3.1-0.2,5.5-0.4,7.6-0.5c1.1,3.6,2,6.6,3,10c3.6-0.8,6.7-1.5,9.6-2.1c-0.6-4.2-1.1-7.7-1.7-11.6
		c3.8-0.4,6.9-0.7,9.9-1c2.3,12,2.6,12.3,12.9,8.2c-0.8-4.9-1.6-10-2.4-15c6.9-1.6,12.8-2.6,18.5-4.2c19.7-5.6,39.3-11.2,58.9-17.3
		c13.4-4.2,26.4-9.9,39.8-13.9c16.8-5,33.7-10.3,50.9-13.2c17.2-2.9,34.6-2.3,52,1.8c17.7,4.2,34.2,11,50,19.7
		c16.2,9,31.9,19.2,48.5,27.3L1480.2,283.4z"/>
	<path class="st0" d="M819.8,273.1c2,12.1,3.9,23.5,5.9,35.6c-12.1,2.1-23.3,3.9-34.5,5.9c-19.8,3.5-39.5,7.4-59.4,10.3
		c-6.8,1-14.5,1.3-20.7-0.9c-7.6-2.8-10.5-12-8.8-19.7c1.6-7.7,8.2-13,17.2-14.4c22-3.3,43.9-6.7,65.8-10.3
		C796.8,277.8,808.1,275.4,819.8,273.1z"/>
	<path class="st0" d="M848.1,441.5c-13.7,2.1-26.4,3.9-39,6.1c-18.9,3.3-37.6,7.3-56.6,10.2c-6.7,1-13.9,3.4-20.4-1.9
		c-6.6-5.4-9.5-13-6.9-21.3c2.3-7.3,8.4-10.6,15.4-11.8c21.7-3.6,43.4-6.7,65.1-10.3c10.3-1.7,20.5-4.3,30.9-5.9
		c1.9-0.3,5.6,1.6,5.9,3C844.8,419.8,846.2,430.3,848.1,441.5z"/>
	<path class="st1" d="M656.7,115.5L656.7,115.5c-7.4,1.6-14.7-3.2-16.2-10.6l-26.1-69.6c-5.3-14.1,2.1-29.9,16.5-34.4
		c0.6-0.2,1.2-0.3,1.7-0.5l0,0c0.5-0.1,1.1-0.2,1.8-0.3c14.9-1.7,28.1,9.9,28.9,24.9l4,74.2C668.9,106.7,664.1,113.9,656.7,115.5z"
		/>
	<path class="st1" d="M838,139L838,139c-6.8-3.4-9.4-11.7-6-18.4L855.3,50c4.7-14.3,20.4-22,34.4-16.4c0.6,0.2,1.2,0.5,1.6,0.7l0,0
		c0.5,0.2,1,0.5,1.6,0.9c12.7,8,15.7,25.3,6.9,37.5L856.5,133C853,139.8,844.8,142.5,838,139z"/>
	<path class="st1" d="M503.1,210.5L503.1,210.5c-5,5.7-13.6,6.3-19.3,1.3L421,172.1c-12.7-8-16.3-25.2-7.6-37.4
		c0.4-0.5,0.8-1,1.1-1.4l0,0c0.4-0.4,0.8-0.8,1.3-1.3c10.9-10.4,28.3-9.1,38,2.4l48,56.8C507.5,196.2,508.1,204.8,503.1,210.5z"/>
	<path class="st2" d="M749.1,111L749.1,111c-4.4-0.5-7.5-4.5-7-8.9l-1.5-43.2c-0.3-8.7,6.7-16.1,15.5-15.9c0.4,0,0.7,0,1,0.1l0,0
		c0.3,0,0.7,0.1,1,0.2c8.5,1.8,13.7,10.6,11.3,19.1L758,104C757.5,108.4,753.5,111.5,749.1,111z"/>
	<path class="st2" d="M572.3,150.1L572.3,150.1c-3.7,2.4-8.6,1.4-11.1-2.2l-29.1-32c-5.9-6.5-5.3-16.6,1.5-22.1
		c0.3-0.2,0.6-0.5,0.8-0.6l0,0c0.3-0.2,0.6-0.4,0.9-0.5c7.7-4.1,17.3-0.7,21,7.2l18.2,39.3C577,142.7,576,147.7,572.3,150.1z"/>
	<g>
		<path class="st1" d="M770.1,634.5L770.1,634.5c7.4-1.5,14.7,3.2,16.2,10.7l25.9,69.7c5.2,14.1-2.2,29.9-16.6,34.3
			c-0.6,0.2-1.2,0.3-1.7,0.5l0,0c-0.5,0.1-1.1,0.2-1.8,0.3c-14.9,1.7-28-9.9-28.8-24.9l-3.8-74.2C757.9,643.2,762.7,636,770.1,634.5
			z"/>
		<path class="st1" d="M588.9,610.4L588.9,610.4c6.7,3.5,9.4,11.7,5.9,18.5l-23.5,70.5c-4.7,14.2-20.5,21.9-34.4,16.3
			c-0.6-0.2-1.2-0.5-1.6-0.7l0,0c-0.5-0.2-1-0.6-1.6-0.9c-12.7-8.1-15.6-25.3-6.8-37.5l43.6-60.3
			C573.9,609.6,582.2,606.9,588.9,610.4z"/>
		<path class="st1" d="M924,539.9L924,539.9c5-5.7,13.7-6.3,19.4-1.3l62.7,40c12.7,8.1,16.3,25.2,7.5,37.4c-0.4,0.5-0.8,1-1.1,1.4
			l0,0c-0.4,0.4-0.8,0.8-1.3,1.3c-10.9,10.3-28.4,9-38-2.5l-47.8-56.9C919.6,554.2,919,545.6,924,539.9z"/>
		<path class="st2" d="M677.7,638.7L677.7,638.7c4.4,0.5,7.5,4.5,7,8.9l1.4,43.3c0.3,8.7-6.8,16.1-15.5,15.9c-0.4,0-0.7,0-1-0.1l0,0
			c-0.3,0-0.7-0.1-1-0.2c-8.5-1.8-13.6-10.7-11.3-19.1l11.7-41.7C669.3,641.3,673.3,638.2,677.7,638.7z"/>
		<path class="st2" d="M854.6,600.1L854.6,600.1c3.7-2.4,8.6-1.4,11.1,2.3l29,32.1c5.9,6.5,5.2,16.7-1.6,22.1
			c-0.3,0.2-0.6,0.4-0.8,0.6l0,0c-0.3,0.2-0.6,0.4-0.9,0.5c-7.7,4.1-17.3,0.7-21-7.3l-18.1-39.3
			C849.9,607.5,850.9,602.5,854.6,600.1z"/>
	</g>
</g>
</svg>
