<svg width="391" height="345" viewBox="0 0 391 345" fill="none" xmlns="http://www.w3.org/2000/svg">
<g opacity="0.25" clip-path="url(#clip0_4391_119852)">
<path d="M214.171 138.546L211.381 143.315C207.818 149.64 205.785 150.401 203.149 146.603C201.005 143.723 200.584 143.697 195.574 146.131L190.043 148.785L194.202 155.931C198.288 162.902 203.558 177.975 202.708 180.076C202.259 181.189 183.371 173.125 136.008 151.54L111.807 140.61L108.277 130.842C104.943 121.298 104.822 120.53 107.551 111.997C111.082 100.769 111.14 98.4912 107.749 97.984C105.572 97.6792 104.701 98.7655 102.403 104.452L99.7054 111.128L96.8749 106.388C93.2078 100.161 92.7133 99.961 90.765 104.782C89.4161 108.12 90.0003 110.945 93.9782 120.318C96.7037 126.74 98.4666 132.342 97.9695 132.86C97.4725 133.378 89.2898 129.784 79.0818 124.796L61.1382 115.819L55.0681 116.961C49.7659 117.982 49.1453 118.451 50.5999 120.189C51.4627 121.257 58.9511 125.146 67.4309 128.716C80.5085 134.433 83.2544 135.111 86.9706 134.455C95.4446 132.703 102.604 138.472 101.932 146.542C101.698 149.611 105.599 152.769 118.94 161.037C124.548 164.597 129.29 167.808 129.511 168.329C130.151 169.594 119.512 174.211 112.227 175.869C106.701 177.087 106.207 176.887 102.901 173.681C99.5942 170.476 98.9761 170.226 95.4072 171.229C92.1354 172.207 91.6884 172.602 92.8458 174.364C93.585 175.382 94.5714 176.499 95.1895 176.749C97.1674 177.548 94.9821 179.398 92.2099 179.14C89.8086 179.033 89.2616 179.674 88.8306 182.52C88.5757 184.574 88.3708 186.505 88.5182 186.852C88.9601 187.894 104.835 186.687 112.244 185.079C116.184 184.227 124.092 181.383 129.82 178.952L140.161 174.358L161.842 183.695L174.189 186.852C168.016 185.274 178.233 187.833 178.233 187.833C180.785 194.329 188.292 195.822 192.919 196.829C199.376 198.288 203.963 203.305 204.561 209.299C204.919 213.039 205.905 214.157 212.699 218.341C227.103 227.181 226.979 227.131 224.62 229.054C223.503 230.041 219.56 231.611 215.941 232.737L209.398 234.695L205.01 229.183C199.957 222.826 198.895 222.253 194.855 223.353C192.227 224.161 192.325 224.632 196.318 229.697C198.659 232.8 200.382 235.653 200.132 236.271C199.933 236.766 197.479 237.5 194.63 237.787C191.732 238.198 188.608 239.524 187.464 240.931C186.443 242.388 183.961 244.261 181.878 245.145L178.233 246.692L181.797 247.125C183.677 247.454 186.326 247.661 187.762 247.667C192.614 247.758 182.689 253.814 174.189 255.987C168.142 257.427 166.083 258.608 165.481 260.809C164.477 264.718 166.381 265.343 174.755 263.838C183.353 262.135 193.72 257.121 199.855 251.547C202.985 248.785 207.027 246.967 211.735 245.994C215.748 245.315 223.978 242.744 230.077 240.463L241.209 236.046L268.062 253.225C294.965 270.28 296.645 271.103 298.567 266.703C298.867 265.961 297.562 263.852 295.91 261.89L292.63 258.264L297.801 259.347L303.022 260.306L296.414 252.459L301.78 254.483C308.703 257.281 310.075 254.24 304.002 249.341L299.533 245.809L304.78 246.348L310.151 246.937L306.473 243.581L302.846 240.102L308.043 240.764C315.221 241.507 316.496 237.996 310.27 234.186C304.983 230.899 305.457 230.083 313.184 229.467C318.83 229.017 318.583 228.917 268.79 208.363L218.7 187.833L218.613 184.491C218.471 182.707 216.613 175.917 214.556 169.62C211.617 160.523 211.133 157.451 212.624 155.897C213.668 154.737 215.811 150.857 217.259 147.272C218.782 143.861 220.352 141.044 220.723 141.194C305.413 175.418 199.538 132.633 214.171 138.546Z" fill="#B78730"/>
<path d="M268.272 92.6597C263.136 87.6526 257.81 88.5089 246.918 92.1198C237.592 85.9289 232.416 82.8338 224.648 88.5126C215.649 94.1932 215.565 100.724 215.093 112.155C204.777 119.176 199.503 123.444 199.128 136.982C203.094 142.899 214.89 143.351 214.89 143.351C214.89 143.351 219.604 154.705 227.102 155.836C229.637 157.935 239.938 154.832 243.117 142.894C257.597 141.666 262.967 139.253 266.55 132.95C268.997 123.965 267.97 120.395 264.664 114.93C273.942 103.561 275.813 98.315 268.272 92.6597Z" fill="#007B6C"/>
<path d="M71.4839 30.566C63.3881 31.8179 58.6988 39.466 58.5253 47.5559C48.1037 44.8429 43.6962 45.4753 39.2794 51.6881C32.116 60.0205 33.4649 65.1229 38.0507 74.3998C27.8642 78.0043 23.2573 80.6345 25.3513 91.0499C32.9786 97.5714 36.2918 98.8396 41.3304 98.9378C42.3504 108.135 43.5955 112.768 52.7052 115.676C59.0879 116.037 61.0734 113.582 64.6006 109.221L64.6303 109.185C70.4526 112.958 73.8286 114.14 80.3086 112.543C86.8968 111.522 89.9717 109.395 94.2271 102.735C100.713 102.693 104.085 103.285 112.795 98.0857C118.697 95.3272 120.161 91.9415 122.384 85.5132C132.393 85.6044 137.251 84.1043 142.964 75.4115C145.492 69.8245 144.052 66.4857 136.357 60.1599C138.171 52.8649 138.399 47.0722 133.957 42.2053C127.634 38.6187 123.965 38.3105 117.242 40.2058C115.285 32.3375 112.564 29.6878 106.008 26.8001C97.9916 26.8121 95.0386 29.591 90.0547 35.056C84.889 30.5442 75.3808 29.9635 71.4839 30.566Z" fill="#007B6C"/>
<path d="M118.404 195.609C111.619 200.782 111.134 210.114 115 217.603C104.114 220.307 100.395 223.078 99.4449 230.961C97.036 242.15 100.809 246.148 109.622 252.355C102.094 260.722 99.1869 265.422 106.286 273.91C116.51 276.083 120.173 275.595 124.832 273.177C130.342 281.086 133.787 284.706 143.57 282.834C149.59 279.988 150.185 276.754 151.243 271.009L151.252 270.96C158.457 271.516 162.135 270.918 167.27 266.232C172.791 262.02 174.546 258.543 175.126 250.332C181.04 247.066 187.833 248.904 193.216 239.812C197.244 234.351 193.487 227.55 192.322 220.562C201.527 215.665 205.225 211.875 206.128 201.078C205.661 194.708 202.683 192.369 192.493 190.409C190.523 182.831 187.849 177.417 181.363 175.174C173.792 175.038 170.281 176.582 165.073 181.661C159.367 175.435 155.558 174.364 148.123 174.984C140.793 178.984 139.473 182.996 137.632 190.477C130.66 188.918 121.67 193.118 118.404 195.609Z" fill="#007B6C"/>
<path d="M314.996 283.753C313.529 285.22 312.329 287.353 312.329 288.42C312.329 291.887 309.929 290.553 308.463 286.42C307.663 283.887 306.196 282.42 304.596 282.42C302.463 282.42 301.929 284.153 300.596 293.753C298.463 310.153 290.996 322.153 278.196 330.02C273.663 332.82 288.729 332.153 296.596 329.087C300.329 327.62 303.796 326.687 304.063 326.953C305.129 328.02 301.529 333.087 296.729 337.087L291.663 341.353L298.596 340.687C306.329 339.753 313.796 336.42 319.529 331.087C322.196 328.553 323.663 328.02 324.329 329.087C325.529 331.087 323.796 339.087 321.663 341.753C320.329 343.353 320.463 343.753 322.596 343.753C326.329 343.753 335.529 336.82 338.463 331.887C339.796 329.62 341.263 327.753 341.663 327.753C342.196 327.753 343.929 329.62 345.529 331.887C348.996 336.553 360.463 342.42 366.196 342.42H370.196L366.063 338.02C362.329 334.287 358.063 326.42 359.663 326.42C360.063 326.42 364.729 327.887 370.196 329.753C375.663 331.62 382.463 333.087 385.263 333.087H390.329L386.329 330.553C375.663 323.887 366.863 310.153 362.329 292.553L359.796 283.487L357.263 286.953C354.063 291.487 352.996 291.353 350.996 286.287L349.263 282.287L346.463 286.687L343.663 291.087L343.263 286.02C342.863 281.887 342.329 281.087 339.796 281.087C337.663 281.087 336.463 282.287 335.129 286.02L333.263 290.953L330.996 286.42L328.729 281.887L326.196 286.553L323.796 291.087L321.929 286.02C319.663 280.42 318.729 280.02 314.996 283.753Z" fill="#B78730"/>
<path d="M41.3784 138.571C35.1196 141.635 33.2447 149.033 35.1492 155.647C25.9989 156.079 22.579 157.707 20.5625 163.869C16.8513 172.448 19.2368 176.251 25.3071 182.626C17.9449 188.129 14.8683 191.43 19.2024 199.36C27.0462 202.729 30.0579 202.921 34.175 201.727C37.3288 208.939 39.5116 212.387 47.6455 212.445C52.9208 211.125 53.9128 208.629 55.675 204.195L55.6899 204.158C61.3728 205.751 64.4137 205.857 69.2729 202.922C74.3657 200.427 76.3251 197.921 78.0976 191.437C83.355 189.762 86.2428 189.391 92.0026 182.966C96.0985 179.233 96.4323 176.113 96.6122 170.33C104.765 167.873 108.331 165.427 110.773 156.922C111.414 151.745 109.4 149.397 101.551 146.205C101.179 139.821 99.8999 135.059 95.0619 132.229C89.0192 130.915 85.9611 131.592 80.9805 134.831C77.4018 128.935 74.5211 127.472 68.4668 126.784C61.9588 128.82 60.263 131.824 57.5968 137.523C52.2605 135.164 44.3912 137.097 41.3784 138.571Z" fill="#009D81"/>
<path d="M167.506 57.9595C158.952 61.7806 156.083 71.6317 158.33 80.6089C146.015 80.757 141.343 82.783 138.343 90.9684C132.951 102.32 135.977 107.543 143.833 116.395C133.681 123.442 129.391 127.732 134.841 138.592C145.221 143.487 149.258 143.888 154.847 142.478C158.744 152.317 161.514 157.053 172.44 157.515C179.591 155.99 181.041 152.683 183.619 146.809L183.64 146.76C191.201 149.168 195.282 149.455 201.949 145.74C208.91 142.628 211.661 139.354 214.349 130.724C221.492 128.723 224.362 128.586 233.362 122.586C239.042 117.764 239.707 111 240.222 103.238C251.291 100.322 256.198 97.2027 259.882 85.8905C260.987 78.9649 258.392 75.7153 247.996 71.0558C247.798 62.4611 246.304 56.0016 239.937 51.971C231.879 49.92 227.738 50.6859 220.893 54.803C216.363 46.7121 212.562 44.6092 204.459 43.3992C195.619 45.8287 193.198 49.7845 189.347 57.3157C182.288 53.8951 171.624 56.1202 167.506 57.9595Z" fill="#009D81"/>
<path d="M73.9093 68.2022C68.7739 63.1951 63.4481 64.0514 52.5561 67.6623C43.2301 61.4714 38.0539 58.3763 30.2853 64.0551C21.287 69.7357 21.2025 76.2669 20.731 87.6976C10.4147 94.7184 5.14036 98.9863 4.766 112.524C8.73177 118.442 20.5276 118.894 20.5276 118.894C20.5276 118.894 25.242 130.248 32.7394 131.379C35.2749 133.477 45.5758 130.375 48.7551 118.437C63.2345 117.208 68.6049 114.796 72.1881 108.492C74.6351 99.5073 73.6081 95.9379 70.3021 90.473C79.5794 79.103 81.4505 73.8575 73.9093 68.2022Z" fill="#009D81"/>
</g>
<defs>
<clipPath id="clip0_4391_119852">
<rect width="390.362" height="344.087" fill="white"/>
</clipPath>
</defs>
</svg>
