<svg width="146" height="100" viewBox="0 0 146 100" fill="none" xmlns="http://www.w3.org/2000/svg">
<g clip-path="url(#clip0_3803_15715)">
<path d="M131.243 85.8535C131.765 85.8535 132.213 86.1148 132.624 86.6001C133.035 87.0853 133.371 87.9065 133.669 89.0263C133.93 90.1462 134.08 91.4526 134.08 92.9457C134.08 94.4388 133.93 95.7453 133.669 96.8278C133.408 97.9103 133.035 98.7315 132.624 99.2167C132.213 99.702 131.728 99.9633 131.206 99.9633C130.422 99.9633 129.787 99.4033 129.302 98.3209C128.667 96.9397 128.369 95.1854 128.369 92.983C128.369 91.4526 128.518 90.1088 128.779 89.0263C129.041 87.9065 129.414 87.1226 129.824 86.6001C130.235 86.1148 130.72 85.8535 131.243 85.8535ZM131.989 93.2817C131.989 90.4448 131.915 88.5784 131.728 87.7199C131.616 87.0853 131.429 86.7494 131.206 86.7494C130.944 86.7494 130.758 87.1973 130.608 88.1305C130.496 89.0637 130.422 90.8181 130.422 93.4683C130.422 95.6706 130.496 97.2384 130.683 98.1715C130.795 98.7315 130.944 99.0301 131.168 99.0301C131.318 99.0301 131.429 98.9181 131.541 98.6568C131.653 98.3955 131.728 97.8356 131.803 97.0144C131.952 95.8572 131.989 94.6254 131.989 93.2817Z" fill="white"/>
<path d="M142.441 85.8906C142.964 85.8906 143.412 86.1519 143.822 86.6372C144.233 87.1224 144.569 87.9436 144.867 89.0635C145.129 90.1833 145.278 91.4897 145.278 92.9828C145.278 94.4759 145.129 95.7824 144.867 96.8649C144.606 97.9474 144.233 98.7686 143.822 99.2538C143.412 99.7391 142.926 100 142.404 100C141.62 100 140.985 99.4405 140.5 98.358C139.866 96.9768 139.567 95.2225 139.567 93.0575C139.567 91.5271 139.716 90.1833 139.977 89.1008C140.239 87.981 140.612 87.1971 141.023 86.6745C141.433 86.1519 141.919 85.8906 142.441 85.8906ZM143.188 93.3561C143.188 90.5192 143.113 88.6528 142.926 87.7943C142.814 87.1598 142.628 86.8238 142.404 86.8238C142.142 86.8238 141.956 87.2717 141.807 88.2049C141.695 89.1381 141.62 90.8925 141.62 93.5427C141.62 95.745 141.695 97.3128 141.881 98.246C141.993 98.8059 142.142 99.1045 142.366 99.1045C142.516 99.1045 142.628 98.9925 142.74 98.7312C142.852 98.4699 142.926 97.91 143.001 97.0888C143.15 95.8944 143.188 94.6626 143.188 93.3561Z" fill="white"/>
<path d="M120.008 85.8535C120.493 85.8535 120.978 86.1148 121.389 86.6001C121.799 87.0853 122.135 87.9065 122.434 89.0263C122.695 90.1462 122.844 91.4526 122.844 92.9457C122.844 94.4388 122.695 95.7453 122.434 96.8278C122.172 97.9103 121.799 98.7315 121.389 99.2167C120.978 99.702 120.493 99.9633 119.97 99.9633C119.186 99.9633 118.552 99.4033 118.066 98.3209C117.432 96.9397 117.133 95.1854 117.133 92.983C117.133 91.4526 117.283 90.1088 117.544 89.0263C117.805 87.9065 118.178 87.1226 118.589 86.6001C119 86.1148 119.448 85.8535 120.008 85.8535ZM120.717 93.2817C120.717 90.4448 120.642 88.5784 120.455 87.7199C120.343 87.0853 120.157 86.7494 119.933 86.7494C119.672 86.7494 119.485 87.1973 119.336 88.1305C119.224 89.0637 119.149 90.8181 119.149 93.4683C119.149 95.6706 119.224 97.2384 119.41 98.1715C119.522 98.7315 119.672 99.0301 119.896 99.0301C120.045 99.0301 120.157 98.8808 120.269 98.6568C120.381 98.3955 120.455 97.8356 120.53 97.0144C120.679 95.8572 120.717 94.6254 120.717 93.2817Z" fill="white"/>
<path d="M8.9585 11.6096V75.514H80.851C81.2989 77.0445 82.5307 78.3509 84.5091 79.5081C87.122 81.0385 90.2948 81.8224 93.9902 81.8224C97.723 81.8224 100.858 81.0385 103.471 79.5081C103.471 79.5081 111.049 76.5219 113.4 76.3352C115.752 76.1859 120.567 75.0288 123.068 76.8578C125.569 78.6869 128.593 81.1878 131.094 81.1878C133.595 81.1878 144.121 81.3371 144.121 81.3371V75.514V66.8168V11.5723H8.9585V11.6096Z" stroke="white" stroke-width="1.16" stroke-miterlimit="13.3333" stroke-linejoin="round"/>
<path d="M8.9585 83.1647L97.6483 83.2394L73.5348 54.1241L62.5979 65.6955L51.7357 70.6974L44.5315 60.2831L41.5453 67.2633L38.3725 60.2084L33.184 53.0789L8.9585 40.5742V83.1647Z" fill="white"/>
<path d="M109.257 3.5461L105.45 6.79358C105.45 6.79358 104.666 8.21202 104.367 8.51064C103.994 8.88391 103.136 9.29451 102.128 9.85442C100.821 10.601 99.3655 11.3102 98.3204 12.3554C96.8273 13.8485 96.0807 15.8268 95.5955 17.7305C94.9236 20.53 94.0277 22.0978 91.1162 22.8817C89.8471 23.2176 86.3383 23.4416 84.6212 23.5162C84.4719 23.5162 76.5585 23.6282 75.6253 23.5909C75.2521 23.5909 70.9594 23.4789 70.2502 23.3296C70.1009 23.2923 68.1225 21.9112 66.9654 21.7245C66.3308 21.6125 65.6963 21.6872 65.2483 21.8738C65.0244 21.9485 64.6511 22.2098 64.3151 22.6204C63.7926 23.2549 63.6432 23.4416 63.158 23.6282C63.0087 23.7029 61.1423 24.1881 61.0677 24.2255C60.8064 24.3001 60.769 24.4121 60.769 24.4121L60.9184 24.5241C60.9184 24.5241 64.4271 24.5241 64.5764 24.5241C64.7257 24.5241 66.0695 24.748 67.6373 24.748C68.3092 24.748 69.093 25.0093 69.6903 25.0467C72.1539 25.2333 81.0378 26.5398 83.4641 26.8757C87.3835 27.4356 96.7899 30.4218 100.187 30.9444C104.778 31.6536 109.78 31.0937 113.475 30.3471C120.269 28.966 126.241 27.9582 133.52 27.025C134.229 26.9504 139.268 26.2411 139.418 26.2038C140.65 26.0545 140.612 25.4946 140.612 25.4946C140.612 25.4946 140.575 25.084 139.791 25.1213C138.821 25.1586 134.379 25.4199 133.557 25.4573C127.473 25.7932 118.291 25.3453 115.976 24.8227C115.678 24.7854 115.528 24.748 115.006 24.5614C113.139 23.8149 112.505 21.6499 113.065 17.8425C113.401 15.4162 116.573 0 116.573 0V0.0373274C116.573 0.0373274 116.499 0.0373274 116.387 0.223964C116.237 0.522583 111.46 8.99589 111.46 8.99589L112.841 1.75439L108.921 7.24151L109.257 3.5461Z" fill="white"/>
<path d="M52.0717 8.17374L48.4882 3.17188C48.4882 3.17188 48.3763 3.84377 47.779 4.77695C46.0993 7.31521 42.6652 10.712 37.8126 14.3328C37.5513 14.5194 35.3863 16.1245 34.6398 16.759C34.0426 17.2443 34.2292 17.8415 34.4905 18.3268C34.7518 18.812 35.237 19.5959 35.4237 20.0812C36.3195 22.0968 36.2075 23.7019 34.6398 25.1577C34.0426 25.6803 33.2587 26.1655 32.0642 26.6881C31.7283 26.8374 31.019 27.136 30.3471 27.2853C29.302 27.5466 27.2863 27.8079 26.0172 27.9199C24.972 27.9946 22.6204 27.9946 21.5006 28.0319C20.4554 28.0692 16.0508 28.0319 14.8936 28.0319C10.7503 27.9199 9.59313 27.7333 9.59313 27.7333C9.59313 27.7333 8.58529 27.0241 7.9134 26.6881C7.0922 26.2402 6.15901 26.0535 5.44979 26.1282C5.00187 26.1655 4.3673 26.3148 3.99403 26.6508C3.80739 26.8001 3.80739 26.8374 3.62075 27.0241C3.21015 27.584 2.94886 27.8453 2.46361 28.0319C2.16499 28.1439 0.671892 28.5172 0.335946 28.6291C0 28.7784 0 28.8531 0 28.8531L0.261292 28.9651H3.91937C3.91937 28.9651 5.1885 29.2264 6.04703 29.2264C6.53229 29.2264 6.56962 29.2264 6.98022 29.2264C7.42814 29.2264 7.68944 29.301 8.02538 29.3757C8.36133 29.4503 8.88391 29.525 9.25718 29.5996C9.63046 29.6743 13.6245 30.1222 15.6028 30.3835C17.0213 30.5702 19.1489 30.7568 20.4554 31.0554C22.0231 31.3914 24.3001 31.8393 25.6439 32.2499C25.9798 32.3619 29.19 33.2577 29.4886 33.3697C32.4375 34.3029 35.1624 35.0121 39.5297 35.46C43.2624 35.8333 46.3233 35.8333 50.168 35.2361C53.4528 34.8255 56.215 34.0789 59.9477 33.2951C64.3524 32.3619 69.0183 31.9886 72.863 31.5407C74.5054 31.354 77.6036 30.8688 78.7981 30.6821C80.1418 30.4582 79.9179 29.9729 79.9179 29.9729C79.9179 29.9729 79.8059 29.5623 79.0967 29.5996C78.91 29.5996 76.3344 29.8236 75.6626 29.8983C74.2441 30.0102 72.0791 30.0849 70.1754 30.0476C68.1224 30.0476 65.1736 29.9356 62.3367 29.6743C56.8869 29.189 54.4606 28.9278 52.8182 28.5918C52.2956 28.4798 51.6611 28.3305 51.6611 27.8826C51.6611 27.584 51.9224 27.3227 52.4823 26.7628C53.4155 25.8296 53.2661 25.1577 53.3035 22.3955C53.3408 18.5881 53.7887 13.9222 53.7141 13.5489C53.6767 13.2503 53.3035 13.101 53.0049 13.2876C52.5569 13.5116 51.6611 14.3328 51.6611 14.3328C51.6611 14.3328 51.5864 14.1834 51.6611 13.9595C51.8477 13.3996 52.5569 12.2051 52.8555 11.6825C53.1168 11.1973 53.1915 11.0106 53.1915 10.824C53.1915 10.6747 53.0795 10.488 52.5569 10.6C52.2583 10.6373 52.1463 10.6747 51.8477 10.6747C51.4744 10.6747 51.0638 10.488 51.2505 9.81614C51.4371 9.33089 52.0717 8.17374 52.0717 8.17374Z" fill="white"/>
<path d="M22.5082 26.5025C22.5082 26.5025 22.2843 25.1587 22.3216 23.7776C22.3589 22.3592 22.5082 21.0527 22.5082 21.0527C22.5082 21.0527 22.8442 21.538 23.1428 21.9113C25.0091 24.0016 27.1368 24.8228 30.8322 24.7108C32.1013 24.6735 32.9972 24.4495 32.9972 24.4495C32.9972 24.4495 32.2133 24.8975 31.2801 25.2334C27.3234 26.6518 22.5082 26.5025 22.5082 26.5025Z" fill="white"/>
<path d="M14.8934 94.737L11.2727 86.2637H8.0625L9.33163 86.7489V99.1043L8.0625 99.5522H11.31L10.1528 99.1043V88.6526L14.7814 99.5522H15.6773V86.7489L16.9091 86.2637H13.5869L14.8934 86.7489V94.737Z" fill="white"/>
<path d="M14.8934 94.737L11.2727 86.2637H8.0625L9.33163 86.7489V99.1043L8.0625 99.5522H11.31L10.1528 99.1043V88.6526L14.7814 99.5522H15.6773V86.7489L16.9091 86.2637H13.5869L14.8934 86.7489V94.737Z" stroke="white" stroke-width="0.5907" stroke-miterlimit="5.152"/>
<path d="M27.1372 94.6999H28.2197L27.1745 89.698L27.1372 89.8846V87.3837L27.4358 86.2266H28.1077L31.4672 99.1045L32.6617 99.5524H28.1824L29.3768 99.1045L28.3317 95.0358H27.1745V94.6999H27.1372Z" fill="white"/>
<path d="M27.1372 94.6999H28.2197L27.1745 89.698L27.1372 89.8846V87.3837L27.4358 86.2266H28.1077L31.4672 99.1045L32.6617 99.5524H28.1824L29.3768 99.1045L28.3317 95.0358H27.1745V94.6999H27.1372Z" stroke="white" stroke-width="0.5907" stroke-miterlimit="5.152"/>
<path d="M27.1372 89.8837L26.0547 94.699H27.1372V95.0349H26.0173L24.9348 99.1036L26.1293 99.5515H22.8818L24.1136 99.1036L27.1745 87.3828L27.1372 89.8837Z" fill="white"/>
<path d="M27.1372 89.8837L26.0547 94.699H27.1372V95.0349H26.0173L24.9348 99.1036L26.1293 99.5515H22.8818L24.1136 99.1036L27.1745 87.3828L27.1372 89.8837Z" stroke="white" stroke-width="0.5907" stroke-miterlimit="5.152"/>
<path d="M46.8457 90.4068V86.3008H39.5669V90.4068H39.6789L41.06 86.6367H42.1798V99.1041L40.6867 99.552H45.6886L44.2328 99.1041V86.6367H45.39L46.7711 90.4068H46.8457Z" fill="white"/>
<path d="M46.8457 90.4068V86.3008H39.5669V90.4068H39.6789L41.06 86.6367H42.1798V99.1041L40.6867 99.552H45.6886L44.2328 99.1041V86.6367H45.39L46.7711 90.4068H46.8457Z" stroke="white" stroke-width="0.5907" stroke-miterlimit="5.152"/>
<path d="M61.8513 86.7487L63.0457 86.3008H59.7609L61.0301 86.7487C61.0301 86.7487 61.0301 95.1474 61.0301 95.334C60.9181 96.8271 60.7314 97.5363 60.3955 98.2082C60.0596 98.8428 59.537 99.328 58.8651 99.2907C58.1932 99.2534 57.9692 98.7681 57.8946 98.4695C57.8572 98.3202 57.7826 97.9096 57.7079 96.3792C57.7079 96.1179 57.7079 86.7487 57.7079 86.7487L58.9397 86.3008H54.4604L55.6923 86.7487C55.6923 86.7487 55.6923 94.5501 55.6923 94.7368C55.7296 98.4322 56.9614 99.0667 57.5213 99.44C58.6411 99.9253 59.4996 99.8879 60.3208 99.328C60.7315 99.0667 61.8886 98.2082 61.9259 94.7741C61.8513 94.6248 61.8513 86.7487 61.8513 86.7487Z" fill="white"/>
<path d="M61.8513 86.7487L63.0457 86.3008H59.7609L61.0301 86.7487C61.0301 86.7487 61.0301 95.1474 61.0301 95.334C60.9181 96.8271 60.7314 97.5363 60.3955 98.2082C60.0596 98.8428 59.537 99.328 58.8651 99.2907C58.1932 99.2534 57.9692 98.7681 57.8946 98.4695C57.8572 98.3202 57.7826 97.9096 57.7079 96.3792C57.7079 96.1179 57.7079 86.7487 57.7079 86.7487L58.9397 86.3008H54.4604L55.6923 86.7487C55.6923 86.7487 55.6923 94.5501 55.6923 94.7368C55.7296 98.4322 56.9614 99.0667 57.5213 99.44C58.6411 99.9253 59.4996 99.8879 60.3208 99.328C60.7315 99.0667 61.8886 98.2082 61.9259 94.7741C61.8513 94.6248 61.8513 86.7487 61.8513 86.7487Z" stroke="white" stroke-width="0.5907" stroke-miterlimit="5.152"/>
<path d="M74.6172 99.5527H74.7292" stroke="white" stroke-width="0.5907" stroke-miterlimit="5.152"/>
<path d="M74.6173 86.7491C74.3187 86.6372 73.4602 86.6372 73.4602 86.6372V92.1616C73.4602 92.1616 73.9454 92.1989 74.6173 92.0496V92.6095L74.3187 92.5349L73.4975 92.4976V99.0672L74.6546 99.5151H70.25L71.4818 99.0672V86.6745L70.25 86.2266H73.2362C73.2362 86.2266 74.468 86.2266 74.7293 86.2639C74.9532 86.3012 76.7076 86.4879 77.4542 87.6077C78.0887 88.5409 77.9768 89.8473 77.7528 90.4072C77.4169 91.1911 76.9316 91.5644 76.1104 91.9376C75.9238 92.0123 74.8039 92.3109 74.8039 92.3109C74.8039 92.3109 75.5505 92.4602 75.7745 92.4976C76.4837 92.5349 76.8569 92.8335 77.0436 93.3188C77.1182 93.5054 77.2302 93.8787 77.3049 94.1026C77.3795 94.3266 78.4993 99.0672 78.4993 99.0672L79.6192 99.5151H76.4463C76.4463 99.5151 75.3265 93.5054 75.2145 93.1321C75.0652 92.6469 74.692 92.5722 74.692 92.5722V92.0123L74.7666 91.975C74.7666 91.975 75.6251 91.7137 75.7745 90.6685C75.9238 89.5487 75.8864 88.6902 75.7745 87.9436C75.5505 87.0478 74.8786 86.8238 74.6173 86.7491Z" fill="white"/>
<path d="M74.6173 86.7491C74.3187 86.6372 73.4602 86.6372 73.4602 86.6372V92.1616C73.4602 92.1616 73.9454 92.1989 74.6173 92.0496V92.6095L74.3187 92.5349L73.4975 92.4976V99.0672L74.6546 99.5151H70.25L71.4818 99.0672V86.6745L70.25 86.2266H73.2362C73.2362 86.2266 74.468 86.2266 74.7293 86.2639C74.9532 86.3012 76.7076 86.4879 77.4542 87.6077C78.0887 88.5409 77.9768 89.8473 77.7528 90.4072C77.4169 91.1911 76.9316 91.5644 76.1104 91.9376C75.9238 92.0123 74.8039 92.3109 74.8039 92.3109C74.8039 92.3109 75.5505 92.4602 75.7745 92.4976C76.4837 92.5349 76.8569 92.8335 77.0436 93.3188C77.1182 93.5054 77.2302 93.8787 77.3049 94.1026C77.3795 94.3266 78.4993 99.0672 78.4993 99.0672L79.6192 99.5151H76.4463C76.4463 99.5151 75.3265 93.5054 75.2145 93.1321C75.0652 92.6469 74.692 92.5722 74.692 92.5722V92.0123L74.7666 91.975C74.7666 91.975 75.6251 91.7137 75.7745 90.6685C75.9238 89.5487 75.8864 88.6902 75.7745 87.9436C75.5505 87.0478 74.8786 86.8238 74.6173 86.7491Z" stroke="white" stroke-width="0.5907" stroke-miterlimit="5.152"/>
<path d="M89.8472 94.6999H90.9297L89.9218 89.698L89.8472 89.922V87.3837L90.1831 86.2266H90.8177L94.1398 99.1045L95.3716 99.5524H90.855L92.0868 99.1045L91.0416 95.0358H89.8472V94.6999Z" fill="white"/>
<path d="M89.8472 94.6999H90.9297L89.9218 89.698L89.8472 89.922V87.3837L90.1831 86.2266H90.8177L94.1398 99.1045L95.3716 99.5524H90.855L92.0868 99.1045L91.0416 95.0358H89.8472V94.6999Z" stroke="white" stroke-width="0.5907" stroke-miterlimit="5.152"/>
<path d="M89.8469 89.9211L88.8391 94.699H89.8469V95.0349H88.7271L87.6819 99.1036L88.9137 99.5515H85.6289L86.8234 99.1036L89.8842 87.3828L89.8469 89.9211Z" fill="white"/>
<path d="M89.8469 89.9211L88.8391 94.699H89.8469V95.0349H88.7271L87.6819 99.1036L88.9137 99.5515H85.6289L86.8234 99.1036L89.8842 87.3828L89.8469 89.9211Z" stroke="white" stroke-width="0.5907" stroke-miterlimit="5.152"/>
<path d="M107.764 87.0465L107.129 86.1133V90.4059H107.167C107.167 90.4059 107.839 87.8303 108.324 87.1211C108.772 86.4492 109.63 86.5239 110.004 87.0838C110.228 87.4197 110.563 88.2036 109.929 90.5552C109.593 91.8244 106.719 99.5511 106.719 99.5511H111.273V95.4078H111.235L110.34 98.5806H107.54C107.54 98.5806 111.123 91.8617 111.497 90.1073C111.945 87.9796 111.011 86.6732 109.892 86.2999C108.66 85.852 107.764 87.0465 107.764 87.0465Z" fill="white"/>
<path d="M107.764 87.0465L107.129 86.1133V90.4059H107.167C107.167 90.4059 107.839 87.8303 108.324 87.1211C108.772 86.4492 109.63 86.5239 110.004 87.0838C110.228 87.4197 110.563 88.2036 109.929 90.5552C109.593 91.8244 106.719 99.5511 106.719 99.5511H111.273V95.4078H111.235L110.34 98.5806H107.54C107.54 98.5806 111.123 91.8617 111.497 90.1073C111.945 87.9796 111.011 86.6732 109.892 86.2999C108.66 85.852 107.764 87.0465 107.764 87.0465Z" stroke="white" stroke-width="0.5907" stroke-miterlimit="5.152"/>
<path d="M54.7218 11.4961H97.163M8.9585 25.4939V11.4961H39.3056" stroke="white" stroke-width="1.1533" stroke-miterlimit="5.152"/>
<path d="M8.9585 83.1652V32.8105" stroke="white" stroke-width="1.1533" stroke-miterlimit="5.152"/>
<path d="M84.4717 62.9336C84.4717 62.9336 84.5837 63.0456 84.6956 63.1576C85.9648 64.5387 90.1828 69.6898 90.1828 69.6898C90.1828 69.6898 93.8782 71.3696 100.298 71.1829C103.359 71.1083 106.831 70.2498 108.436 69.9511C109.07 69.8392 109.668 69.7272 110.638 69.6152C114.072 69.2419 115.64 69.2419 118.253 70.9216C118.888 71.3322 125.569 75.3636 126.017 75.6622C128.481 77.1926 132.027 76.8567 133.445 76.3714C136.282 75.4383 138.484 74.6917 142.254 75.2516C142.74 75.3263 144.046 75.6249 144.046 75.6249C144.046 75.6249 140.388 72.9373 138.671 71.9668C136.394 70.6977 134.005 70.1378 131.803 70.5484C131.355 70.623 131.765 70.511 131.765 70.511C131.765 70.511 126.876 71.6682 124.337 71.8175C123.217 71.8548 120.194 72.1535 116.946 69.0926C115.416 67.5622 114.259 66.517 113.624 66.1064C112.206 65.2106 110.302 64.9866 108.622 64.9493C108.063 64.9493 103.733 65.0986 100.186 65.1732C96.7151 65.2852 90.2574 64.8373 87.0473 63.7175C86.338 63.5682 84.4717 62.9336 84.4717 62.9336Z" fill="white"/>
<path d="M144.42 83.0157L144.27 79.4696C144.27 79.4696 142.068 78.3498 139.082 78.3125C137.103 78.2751 135.05 78.947 131.728 79.6562C130.272 79.9922 127.66 80.1415 125.905 78.9844C124.487 78.0512 123.367 77.1926 122.359 76.2221C121.874 75.7369 121.463 75.2143 120.679 74.4677C119 72.8253 118.328 72.4521 116.76 72.3401C114.259 72.1535 112.019 72.6387 109.481 72.8627C105.972 73.1613 99.8507 73.8705 91.7507 71.5189C91.3027 71.3696 91.3027 71.2949 91.3027 71.2949C91.3027 71.2949 92.2732 72.3028 92.6465 72.676C95.4834 75.6249 101.082 82.3438 101.082 82.3438C101.082 82.3438 101.456 82.1572 102.24 81.7839C108.809 78.6484 114.782 77.7152 115.901 77.5659C119.149 77.0433 121.687 77.0433 123.89 78.5364C124.524 78.947 124.487 78.9097 125.196 79.395C127.622 80.9627 131.504 83.501 133.52 84.1355C135.685 84.8448 137.178 84.8821 139.044 84.4342C141.321 83.8369 144.42 83.0157 144.42 83.0157Z" fill="white"/>
<path d="M116.088 11.4961H144.531V83.0153" stroke="white" stroke-width="1.1533" stroke-miterlimit="5.152"/>
<path d="M56.1028 45.3519L54.9457 48.338H51.101L54.1991 50.2791L53.0046 53.4146L56.1028 51.4735L59.2383 53.4146L58.0065 50.3164L61.1047 48.3754H57.1853L56.1028 45.3519ZM52.4074 56.7367L51.2876 59.6856H47.4429L50.541 61.6266L49.3092 64.7621L52.4074 62.8211L55.5429 64.7621L54.3111 61.6639L57.4466 59.7229H53.5272L52.4074 56.7367ZM106.308 56.7367L105.188 59.7229H101.306L104.404 61.6639L103.21 64.7994L106.308 62.8584L109.406 64.7994L108.212 61.7012L111.347 59.7602H107.465L106.308 56.7367ZM102.762 45.3519L101.605 48.338H97.7975L100.858 50.2791L99.6265 53.4146L102.762 51.4735L105.898 53.4146L104.628 50.3164L107.801 48.3754H103.919L102.762 45.3519ZM93.4302 36.7666L92.3104 39.7154H88.4656L91.5638 41.6564L90.3693 44.7546L93.5048 42.8509L96.603 44.7546L95.3712 41.6564L98.5067 39.7154H94.6247L93.4302 36.7666ZM79.3951 34.2656L78.2753 37.2518H74.4679L77.5661 39.1555L76.3342 42.3283L79.3951 40.3873L82.5679 42.3283L81.3361 39.1928L84.4716 37.2518H80.5522L79.3951 34.2656ZM65.3973 36.6919L64.2402 39.6781H60.3955L63.4936 41.6191L62.2992 44.7546L65.3973 42.8136L68.4955 44.7546L67.301 41.6564L70.3992 39.7154H66.5172L65.3973 36.6919Z" stroke="white" stroke-width="0.28" stroke-miterlimit="5.152"/>
</g>
<defs>
<clipPath id="clip0_3803_15715">
<rect width="145.278" height="100" fill="white"/>
</clipPath>
</defs>
</svg>
