<?xml version="1.0" encoding="utf-8"?>
<!-- Generator: Adobe Illustrator 27.2.0, SVG Export Plug-In . SVG Version: 6.00 Build 0)  -->
<svg version="1.1" id="Capa_1" xmlns="http://www.w3.org/2000/svg" xmlns:xlink="http://www.w3.org/1999/xlink" x="0px" y="0px"
	 viewBox="0 0 766.4 753.7" style="enable-background:new 0 0 766.4 753.7;" xml:space="preserve">
<style type="text/css">
	.st0{fill:#BCBEC0;}
	.st1{opacity:0.5;fill:#FFFFFF;}
	.st2{fill:#004B7F;}
</style>
<path class="st0" d="M686.4,418.4h-480c-44.1,0-80,28.4-80,63.3v63.3c0,34.9,35.9,63.3,80,63.3h480c44.1,0,80-28.4,80-63.3v-63.3
	C766.4,446.8,730.6,418.4,686.4,418.4z M606,537.4c-13,0-23.6-10.7-23.6-24s10.6-24,23.6-24s23.6,10.7,23.6,24S619,537.4,606,537.4z
	 M684.7,537.4c-13,0-23.6-10.7-23.6-24s10.6-24,23.6-24s23.6,10.7,23.6,24S697.7,537.4,684.7,537.4z"/>
<path class="st0" d="M686.4,0h-480c-44.1,0-80,28.4-80,63.3v63.3c0,34.9,35.9,63.3,80,63.3h480c44.1,0,80-28.4,80-63.3V63.3
	C766.4,28.4,730.6,0,686.4,0z M598.4,119c-13.3,0-24-10.7-24-24s10.7-24,24-24s24,10.7,24,24S611.7,119,598.4,119z M678.4,119
	c-13.3,0-24-10.7-24-24s10.7-24,24-24s24,10.7,24,24S691.7,119,678.4,119z"/>
<path class="st0" d="M686.4,209.2h-480c-44.1,0-80,28.4-80,63.3v63.3c0,34.9,35.9,63.3,80,63.3h480c44.1,0,80-28.4,80-63.3v-63.3
	C766.4,237.6,730.6,209.2,686.4,209.2z M598.4,328.2c-13.3,0-24-10.7-24-24s10.7-24,24-24s24,10.7,24,24S611.7,328.2,598.4,328.2z
	 M678.4,328.2c-13.3,0-24-10.7-24-24s10.7-24,24-24s24,10.7,24,24S691.7,328.2,678.4,328.2z"/>
<g>
	<ellipse class="st1" cx="162.5" cy="516.1" rx="112.5" ry="112.5"/>
	<path class="st2" d="M392.7,710.9l-98.9-99c19.6-26.9,31.3-60,31.3-95.8c0-89.8-72.7-162.5-162.5-162.5S0,426.4,0,516.1
		s72.7,162.5,162.5,162.5c35.9,0,69-11.6,95.9-31.2l98.9,99c9.8,9.8,25.6,9.8,35.4,0S402.4,720.7,392.7,710.9z M162.5,628.6
		C100.4,628.6,50,578.3,50,516.1c0-62.1,50.4-112.5,112.5-112.5S275,454,275,516.1C275,578.3,224.6,628.6,162.5,628.6z"/>
</g>
</svg>
