<svg width="397" height="400" viewBox="0 0 397 400" fill="none" xmlns="http://www.w3.org/2000/svg">
<g opacity="0.25" clip-path="url(#clip0_4393_120150)">
<mask id="mask0_4393_120150" style="mask-type:alpha" maskUnits="userSpaceOnUse" x="5" y="5" width="245" height="245">
<circle cx="127.861" cy="127.862" r="121.914" fill="#E3F2FD"/>
</mask>
<g mask="url(#mask0_4393_120150)">
<circle cx="127.861" cy="127.862" r="121.914" fill="#004B7F" fill-opacity="0.1"/>
<path d="M157.025 189.738C158.779 188.396 159.113 185.885 157.771 184.131C156.428 182.377 153.918 182.043 152.163 183.385L157.025 189.738ZM113.954 197.4C124.258 198.81 132.082 199.228 138.826 198.086C145.732 196.918 151.242 194.164 157.025 189.738L152.163 183.385C147.16 187.213 142.832 189.295 137.491 190.199C131.989 191.13 125.157 190.858 115.039 189.474L113.954 197.4Z" fill="#009D81"/>
<path d="M158.676 144.43C147.826 139.264 143.552 138.606 139.478 141.76" stroke="#009D81" stroke-width="4" stroke-linecap="round"/>
<path d="M129.377 105.66C131.386 117.509 130.852 121.8 126.706 124.859" stroke="#009D81" stroke-width="4" stroke-linecap="round"/>
<path d="M84.5886 93.8883C86.359 92.567 88.8654 92.9311 90.1867 94.7015C91.508 96.4719 91.144 98.9783 89.3735 100.3L84.5886 93.8883ZM65.4607 133.232C66.9171 122.934 68.6506 115.294 71.59 109.117C74.5993 102.793 78.7527 98.2439 84.5886 93.8883L89.3735 100.3C84.3249 104.068 81.1415 107.663 78.8138 112.554C76.416 117.593 74.8119 124.24 73.3819 134.352L65.4607 133.232Z" fill="#009D81"/>
<path d="M-16.8472 170.547C-18.6016 171.889 -18.9356 174.4 -17.5931 176.154C-16.2506 177.909 -13.74 178.243 -11.9856 176.9L-16.8472 170.547ZM26.2235 162.885C15.9191 161.475 8.09591 161.057 1.35124 162.199C-5.55405 163.368 -11.064 166.121 -16.8472 170.547L-11.9856 176.9C-6.98257 173.072 -2.65501 170.991 2.68632 170.087C8.18827 169.155 15.0208 169.427 25.139 170.811L26.2235 162.885Z" fill="#009D81"/>
<path d="M55.5889 266.396C53.8185 267.718 51.3121 267.354 49.9908 265.583C48.6695 263.813 49.0335 261.306 50.804 259.985L55.5889 266.396ZM74.7168 227.053C73.2604 237.351 71.5269 244.991 68.5875 251.168C65.5782 257.492 61.4248 262.041 55.5889 266.396L50.804 259.985C55.8526 256.217 59.0359 252.622 61.3637 247.73C63.7615 242.691 65.3656 236.044 66.7956 225.933L74.7168 227.053Z" fill="#009D81"/>
<path d="M98.4989 238.818C98.2755 241.016 99.8761 242.978 102.074 243.202C104.272 243.425 106.235 241.825 106.458 239.627L98.4989 238.818ZM88.4963 213.845C94.2014 219.394 96.6977 225.681 97.7728 230.619C98.3108 233.091 98.4875 235.204 98.531 236.678C98.5527 237.413 98.5411 237.984 98.5258 238.354C98.5182 238.539 98.5096 238.673 98.5038 238.752C98.501 238.791 98.4988 238.817 98.4978 238.828C98.4973 238.834 98.4971 238.836 98.4973 238.834C98.4974 238.833 98.4976 238.831 98.4978 238.829C98.498 238.827 98.4981 238.826 98.4983 238.824C98.4984 238.823 98.4985 238.822 98.4986 238.821C98.4987 238.819 98.4989 238.818 102.478 239.222C106.458 239.627 106.458 239.625 106.458 239.623C106.458 239.622 106.459 239.621 106.459 239.619C106.459 239.616 106.459 239.613 106.46 239.61C106.46 239.604 106.461 239.596 106.462 239.588C106.463 239.571 106.465 239.55 106.467 239.525C106.472 239.476 106.477 239.411 106.483 239.332C106.494 239.174 106.508 238.956 106.519 238.685C106.541 238.142 106.555 237.382 106.528 236.442C106.472 234.565 106.25 231.951 105.59 228.918C104.268 222.846 101.168 215.01 94.0744 208.111L88.4963 213.845Z" fill="#009D81"/>
<path d="M21.3962 136.793C19.2208 136.408 17.7695 134.332 18.1546 132.157C18.5396 129.982 20.6152 128.531 22.7906 128.916L21.3962 136.793ZM42.6899 153.233C38.9087 146.23 33.5423 142.112 29.085 139.73C26.8545 138.537 24.8695 137.791 23.4637 137.346C22.7623 137.125 22.2102 136.98 21.85 136.894C21.6701 136.851 21.5386 136.822 21.4611 136.806C21.4223 136.798 21.397 136.793 21.386 136.791C21.3805 136.79 21.3785 136.79 21.3801 136.79C21.381 136.79 21.3827 136.791 21.3854 136.791C21.3867 136.791 21.3883 136.792 21.3901 136.792C21.391 136.792 21.3925 136.792 21.3929 136.793C21.3945 136.793 21.3962 136.793 22.0934 132.854C22.7906 128.916 22.7923 128.916 22.7941 128.916C22.7948 128.916 22.7967 128.917 22.7981 128.917C22.8008 128.917 22.8038 128.918 22.807 128.919C22.8135 128.92 22.8209 128.921 22.8293 128.923C22.8461 128.926 22.8666 128.93 22.891 128.934C22.9396 128.944 23.0031 128.956 23.0809 128.972C23.2365 129.004 23.4492 129.051 23.7134 129.114C24.2413 129.24 24.9768 129.435 25.8737 129.718C27.6642 130.284 30.1178 131.211 32.856 132.674C38.3362 135.603 45.028 140.724 49.7294 149.432L42.6899 153.233Z" fill="#009D81"/>
<path d="M79.7866 174.375L16.1646 222.456" stroke="white" stroke-width="4" stroke-linecap="round"/>
<path d="M131.838 161.589C136.712 157.906 139.962 152.488 140.872 146.528C141.782 140.568 140.279 134.553 136.693 129.807C133.106 125.062 127.73 121.973 121.748 121.222C115.766 120.471 109.667 122.118 104.793 125.802L118.315 143.695L131.838 161.589Z" fill="#009D81"/>
<path fill-rule="evenodd" clip-rule="evenodd" d="M102.359 213.543C110.664 207.267 128.887 187.488 129.618 176.246C130.231 166.808 123.634 158.484 117.198 150.361C114.77 147.296 112.416 144.187 110.137 141.01L110.137 141.009C104.641 133.346 100.021 126.904 90.838 124.931C79.8232 122.565 55.8216 134.698 47.5164 140.975C32.8838 152.032 21.7396 166.46 16.5351 181.084C11.8545 194.237 12.3235 206.579 17.7559 215.93L95.12 157.464C96.4419 156.465 98.3232 156.727 99.3222 158.049C100.321 159.371 100.059 161.252 98.7375 162.251L21.2735 220.793C28.7342 229.188 40.8457 233.346 55.3146 232.398C70.8035 231.383 87.726 224.601 102.359 213.543Z" fill="#009D81"/>
<path fill-rule="evenodd" clip-rule="evenodd" d="M220.255 62.2404C245.107 124.192 223.063 192.727 168.808 218.086C114.551 243.446 47.828 216.395 16.2408 157.587C17.246 160.092 18.3278 162.587 19.4874 165.068C49.3161 228.887 119.258 259.234 175.708 232.849C232.157 206.465 253.737 133.341 223.909 69.5223C222.75 67.0441 221.531 64.6163 220.255 62.2404Z" fill="#2E3E4C" fill-opacity="0.25"/>
<ellipse cx="188" cy="68" rx="10" ry="10" fill="#2E3E4C" fill-opacity="0.25"/>
<path d="M110.618 34.8822C124.189 32.2186 144.17 33.2154 163.94 42.7097C168 44.6594 173.778 47.423 173.195 55.9016C172.853 60.8912 168.811 62.6184 165.319 62.3787C162.631 62.3118 158.404 60.9015 149.562 58.2897C138.456 55.0089 130.701 52.0713 111.789 53.6913C95.6122 58.0195 89.7737 62.6886 81.1775 68.8633C76.8287 71.9872 75.3639 73.242 70.549 74.813C68.1748 75.7554 60.0204 74.0128 60.1842 67.4219C60.2796 63.5853 62.175 60.2165 65.0425 58.1032C81.0472 44.7746 97.0479 37.5457 110.618 34.8822Z" fill="#2E3E4C" fill-opacity="0.25"/>
</g>
<path d="M0.324885 137.67C4.71933 190.162 39.1988 233.961 88.6965 249.945C102.121 254.291 113.325 255.981 128.053 255.981C149.011 255.981 166.493 251.925 185.181 242.702C190.589 240.046 201.02 233.671 205.753 230.098C206.091 229.808 207.877 231.257 210.775 234.154L215.266 238.645L226.807 226.814L238.3 215.031L233.954 210.588L229.56 206.194L231.009 204.311C233.375 201.365 238.59 193.156 240.956 188.713C258.051 156.889 260.852 118.209 248.49 84.357C228.063 28.2917 171.998 -6.1394 112.6 0.911017C60.5915 7.0922 16.6954 45.6763 3.94668 96.4779C0.711206 109.371 -0.689215 125.356 0.324885 137.67ZM20.0757 110.724C23.7941 88.4617 33.5488 68.8075 48.8568 52.6302C66.5795 33.8934 91.2559 21.8691 117.623 19.1648C128.729 18.0058 143.941 19.2131 155.241 22.1106C181.704 28.8229 204.69 45.3383 219.854 68.5177C228.256 81.3147 234.003 96.6228 236.321 112.172C237.576 120.961 237.48 137.235 236.079 145.251C233.182 161.67 228.111 174.805 219.564 187.94C206.091 208.608 185.954 224.061 162.388 231.884C150.991 235.651 140.899 237.196 128.053 237.196C115.256 237.196 105.84 235.748 94.6363 232.126C77.5897 226.573 63.682 218.122 51.0299 205.566C33.5005 188.23 22.9248 166.451 19.3996 140.519C18.4338 133.372 18.7719 118.498 20.0757 110.724Z" fill="#2E3E4C"/>
<path d="M265.777 231.726L230.92 265.629L355.547 390.733C356.367 394.74 373.745 403.742 387.062 390.733C398.114 379.269 399.023 371.78 390.882 356.831L265.777 231.726Z" fill="#004B7F"/>
<path d="M230.681 266.345L265.3 231.726C258.058 224.803 243.192 210.764 241.664 210L208 243.664L230.681 266.345Z" fill="#0E4096" fill-opacity="0.2"/>
</g>
<defs>
<clipPath id="clip0_4393_120150">
<rect width="396.469" height="400" fill="white"/>
</clipPath>
</defs>
</svg>
