<?xml version="1.0" encoding="utf-8"?>
<!-- Generator: Adobe Illustrator 27.2.0, SVG Export Plug-In . SVG Version: 6.00 Build 0)  -->
<svg version="1.1" id="Capa_1" xmlns="http://www.w3.org/2000/svg" xmlns:xlink="http://www.w3.org/1999/xlink" x="0px" y="0px"
	 viewBox="0 0 494.3 348.9" style="enable-background:new 0 0 494.3 348.9;" xml:space="preserve">
<style type="text/css">
	.st0{opacity:0.7;fill:#004B7F;enable-background:new    ;}
	.st1{opacity:0.6;fill:#007B6C;enable-background:new    ;}
	.st2{opacity:0.8;fill:#BCBEC0;enable-background:new    ;}
</style>
<path class="st0" d="M118.6,222.5c4,0,7.7,2.1,9.7,5.6L188.9,332c2,3.5,2,7.8,0,11.3s-5.8,5.6-9.8,5.6L57,348.4
	c-4,0-7.8-2.2-9.8-5.7s-1.9-7.8,0.1-11.3L108.8,228C110.9,224.6,114.6,222.5,118.6,222.5z M118.5,258.6c-3.8,0-6.8,3-6.8,6.7
	l-0.2,31.6c0,3.7,3,6.8,6.8,6.8s6.8-3,6.8-6.7l0.1-31.6C125.2,261.6,122.2,258.6,118.5,258.6z M127.2,321.7c0-5-4-9-9-9.1
	c-5,0-9.1,4-9.1,9s4,9,9,9.1C123.2,330.7,127.2,326.7,127.2,321.7z"/>
<path class="st1" d="M171.9,1.9c5.1,2.6,8.5,7.9,8.9,13.7l9.6,174.8c0.4,5.9-2.6,11.5-7.5,14.7c-4.9,3.2-11.2,3.5-16.5,0.8
	L8.9,124.8c-5.2-2.7-8.6-8-8.8-13.8c-0.3-5.9,2.7-11.5,7.6-14.6L155.6,2.6C160.5-0.6,166.7-0.9,171.9,1.9z M147.8,48.6
	c-4.8-2.5-10.7-0.6-13.3,4.3l-21,40.9c-2.5,4.9-0.6,10.7,4.3,13.3c4.8,2.5,10.7,0.6,13.3-4.3l21-40.9
	C154.6,56.9,152.6,51,147.8,48.6z M117.4,136.3c3.3-6.5,0.8-14.3-5.7-17.7c-6.5-3.3-14.3-0.8-17.7,5.7c-3.3,6.5-0.8,14.3,5.7,17.7
	C106.2,145.2,114.1,142.8,117.4,136.3z"/>
<path class="st2" d="M307.3,19.5c8.3-1.3,16.7,1.9,22,8.5L489,224.1c5.4,6.6,6.8,15.6,3.7,23.5c-3,7.9-10.1,13.6-18.5,14.9
	L221,301.4c-8.4,1.3-16.9-2-22.1-8.6c-5.3-6.6-6.6-15.7-3.5-23.5l93.4-235C292,26.4,299,20.8,307.3,19.5z M318.9,94.5
	c-7.8,1.2-13.1,8.4-11.9,16.2l10.1,65.6c1.2,7.8,8.4,13.1,16.2,11.9c7.8-1.2,13.1-8.4,11.9-16.2l-10.1-65.6
	C333.9,98.6,326.7,93.3,318.9,94.5z M357.8,222.8c-1.6-10.4-11.3-17.5-21.6-15.9c-10.4,1.6-17.5,11.3-15.9,21.6
	c1.6,10.4,11.3,17.5,21.6,15.9C352.3,242.9,359.4,233.2,357.8,222.8z"/>
</svg>
